<svg width="100" height="100" viewBox="0 0 100 100" xmlns="http://www.w3.org/2000/svg">
  <!-- Background -->
  <rect width="100" height="100" fill="#FD353C"/>
  
  <!-- Face -->
  <ellipse cx="50" cy="45" rx="25" ry="28" fill="#FDBCB4"/>
  
  <!-- Hair -->
  <path d="M25 35 Q30 15 50 20 Q70 15 75 35 Q75 25 70 30 Q65 20 60 25 Q55 15 50 18 Q45 15 40 25 Q35 20 30 30 Q25 25 25 35" fill="#FFD700"/>
  
  <!-- Headband -->
  <rect x="28" y="28" width="44" height="8" fill="#000080"/>
  <rect x="42" y="25" width="16" height="14" fill="#C0C0C0"/>
  <circle cx="50" cy="32" r="3" fill="#FF4500"/>
  
  <!-- Eyes -->
  <ellipse cx="42" cy="42" rx="4" ry="3" fill="white"/>
  <ellipse cx="58" cy="42" rx="4" ry="3" fill="white"/>
  <circle cx="42" cy="42" r="2" fill="#0066CC"/>
  <circle cx="58" cy="42" r="2" fill="#0066CC"/>
  <circle cx="42" cy="41" r="1" fill="black"/>
  <circle cx="58" cy="41" r="1" fill="black"/>
  
  <!-- Whisker marks -->
  <line x1="32" y1="45" x2="38" y2="43" stroke="black" stroke-width="2"/>
  <line x1="32" y1="49" x2="38" y2="49" stroke="black" stroke-width="2"/>
  <line x1="32" y1="53" x2="38" y2="51" stroke="black" stroke-width="2"/>
  <line x1="68" y1="45" x2="62" y2="43" stroke="black" stroke-width="2"/>
  <line x1="68" y1="49" x2="62" y2="49" stroke="black" stroke-width="2"/>
  <line x1="68" y1="53" x2="62" y2="51" stroke="black" stroke-width="2"/>
  
  <!-- Nose -->
  <circle cx="50" cy="48" r="1" fill="#F4A460"/>
  
  <!-- Mouth -->
  <path d="M47 55 Q50 58 53 55" stroke="black" stroke-width="2" fill="none"/>
  
  <!-- Body/Jacket -->
  <rect x="35" y="65" width="30" height="35" fill="#FF4500"/>
  <rect x="40" y="70" width="20" height="25" fill="#000080"/>
  <circle cx="50" cy="77" r="3" fill="#FF4500"/>
  
  <!-- Arms -->
  <rect x="25" y="68" width="12" height="20" fill="#FF4500"/>
  <rect x="63" y="68" width="12" height="20" fill="#FF4500"/>
  
  <!-- Hands -->
  <circle cx="31" cy="88" r="4" fill="#FDBCB4"/>
  <circle cx="69" cy="88" r="4" fill="#FDBCB4"/>
</svg>