<svg width="100" height="100" viewBox="0 0 100 100" xmlns="http://www.w3.org/2000/svg">
  <!-- Background -->
  <rect width="100" height="100" fill="#F5A300"/>
  
  <!-- Head -->
  <circle cx="50" cy="30" r="15" fill="#FDBCB4" stroke="#FFFFFF" stroke-width="2"/>
  
  <!-- Hair -->
  <path d="M35 25 Q40 15 50 18 Q60 15 65 25 Q65 20 60 22 Q55 12 50 15 Q45 12 40 22 Q35 20 35 25" fill="#8B4513"/>
  
  <!-- Eyes -->
  <circle cx="45" cy="28" r="2" fill="#000000"/>
  <circle cx="55" cy="28" r="2" fill="#000000"/>
  <circle cx="45" cy="27" r="1" fill="#FFFFFF"/>
  <circle cx="55" cy="27" r="1" fill="#FFFFFF"/>
  
  <!-- Nose -->
  <circle cx="50" cy="32" r="1" fill="#F4A460"/>
  
  <!-- Mouth -->
  <path d="M47 35 Q50 37 53 35" stroke="#000000" stroke-width="1" fill="none"/>
  
  <!-- Body -->
  <rect x="35" y="45" width="30" height="35" fill="#4169E1" stroke="#FFFFFF" stroke-width="2" rx="5"/>
  
  <!-- Arms -->
  <rect x="25" y="50" width="12" height="20" fill="#4169E1" stroke="#FFFFFF" stroke-width="2" rx="3"/>
  <rect x="63" y="50" width="12" height="20" fill="#4169E1" stroke="#FFFFFF" stroke-width="2" rx="3"/>
  
  <!-- Hands -->
  <circle cx="31" cy="70" r="4" fill="#FDBCB4" stroke="#FFFFFF" stroke-width="1"/>
  <circle cx="69" cy="70" r="4" fill="#FDBCB4" stroke="#FFFFFF" stroke-width="1"/>
  
  <!-- Legs -->
  <rect x="42" y="80" width="8" height="18" fill="#2F4F4F" stroke="#FFFFFF" stroke-width="2" rx="2"/>
  <rect x="52" y="80" width="8" height="18" fill="#2F4F4F" stroke="#FFFFFF" stroke-width="2" rx="2"/>
  
  <!-- Luggage/Bag -->
  <rect x="15" y="75" width="12" height="10" fill="#8B4513" stroke="#FFFFFF" stroke-width="1" rx="2"/>
  <rect x="17" y="77" width="8" height="2" fill="#FFFFFF"/>
</svg>