<svg width="100" height="100" viewBox="0 0 100 100" xmlns="http://www.w3.org/2000/svg">
  <!-- Background -->
  <rect width="100" height="100" fill="#FD353C"/>
  
  <!-- Start point -->
  <circle cx="20" cy="25" r="6" fill="#00FF00" stroke="#FFFFFF" stroke-width="2"/>
  <circle cx="20" cy="25" r="3" fill="#FFFFFF"/>
  
  <!-- End point -->
  <circle cx="80" cy="75" r="6" fill="#FF4500" stroke="#FFFFFF" stroke-width="2"/>
  <circle cx="80" cy="75" r="3" fill="#FFFFFF"/>
  
  <!-- Route path (curved line) -->
  <path d="M 26 25 Q 40 15 55 30 Q 70 45 80 69" stroke="#FFFFFF" stroke-width="4" fill="none" stroke-dasharray="8,4"/>
  
  <!-- Waypoints -->
  <circle cx="42" cy="22" r="3" fill="#FFD700" stroke="#FFFFFF" stroke-width="1"/>
  <circle cx="60" cy="40" r="3" fill="#FFD700" stroke="#FFFFFF" stroke-width="1"/>
  <circle cx="72" cy="58" r="3" fill="#FFD700" stroke="#FFFFFF" stroke-width="1"/>
  
  <!-- Direction arrows -->
  <polygon points="50,25 55,20 55,22 58,22 58,28 55,28 55,30" fill="#FFFFFF"/>
  <polygon points="68,50 73,45 73,47 76,47 76,53 73,53 73,55" fill="#FFFFFF"/>
</svg>