<svg width="100" height="100" viewBox="0 0 100 100" xmlns="http://www.w3.org/2000/svg">
  <!-- Background -->
  <rect width="100" height="100" fill="#FD353C"/>
  
  <!-- Face -->
  <ellipse cx="50" cy="45" rx="23" ry="26" fill="#FDBCB4"/>
  
  <!-- Hair -->
  <path d="M27 35 Q30 18 40 22 Q45 15 50 20 Q55 15 60 22 Q70 18 73 35 Q73 45 70 50 Q65 55 60 52 Q55 48 50 50 Q45 48 40 52 Q35 55 30 50 Q27 45 27 35" fill="#FFB6C1"/>
  
  <!-- Hair strands -->
  <path d="M35 25 Q38 20 42 25" fill="#FFB6C1"/>
  <path d="M58 25 Q62 20 65 25" fill="#FFB6C1"/>
  
  <!-- Headband -->
  <rect x="30" y="28" width="40" height="8" fill="#FF1493"/>
  <rect x="42" y="25" width="16" height="14" fill="#C0C0C0"/>
  <circle cx="50" cy="32" r="3" fill="#FF4500"/>
  
  <!-- Eyes (larger, more feminine) -->
  <ellipse cx="42" cy="42" rx="5" ry="4" fill="white"/>
  <ellipse cx="58" cy="42" rx="5" ry="4" fill="white"/>
  <circle cx="42" cy="42" r="2.5" fill="#32CD32"/>
  <circle cx="58" cy="42" r="2.5" fill="#32CD32"/>
  <circle cx="42" cy="41" r="1" fill="black"/>
  <circle cx="58" cy="41" r="1" fill="black"/>
  
  <!-- Eyelashes -->
  <path d="M38 39 L40 37" stroke="black" stroke-width="1"/>
  <path d="M46 37 L44 39" stroke="black" stroke-width="1"/>
  <path d="M54 39 L56 37" stroke="black" stroke-width="1"/>
  <path d="M62 37 L60 39" stroke="black" stroke-width="1"/>
  
  <!-- Nose -->
  <circle cx="50" cy="48" r="0.5" fill="#F4A460"/>
  
  <!-- Mouth (small smile) -->
  <path d="M47 54 Q50 56 53 54" stroke="#FF69B4" stroke-width="2" fill="none"/>
  
  <!-- Body/Dress -->
  <rect x="35" y="65" width="30" height="35" fill="#FF1493"/>
  <rect x="40" y="70" width="20" height="25" fill="#FFB6C1"/>
  
  <!-- Arms -->
  <rect x="25" y="68" width="12" height="20" fill="#FF1493"/>
  <rect x="63" y="68" width="12" height="20" fill="#FF1493"/>
  
  <!-- Hands -->
  <circle cx="31" cy="88" r="4" fill="#FDBCB4"/>
  <circle cx="69" cy="88" r="4" fill="#FDBCB4"/>
</svg>