<svg width="100" height="100" viewBox="0 0 100 100" xmlns="http://www.w3.org/2000/svg">
  <!-- Background -->
  <rect width="100" height="100" fill="#FD353C"/>
  
  <!-- Face -->
  <ellipse cx="50" cy="45" rx="25" ry="28" fill="#FDBCB4"/>
  
  <!-- Hair -->
  <path d="M25 35 Q28 15 35 20 Q40 12 45 18 Q48 10 50 15 Q52 10 55 18 Q60 12 65 20 Q72 15 75 35 Q75 30 70 32 Q65 25 60 28 Q55 20 50 25 Q45 20 40 28 Q35 25 30 32 Q25 30 25 35" fill="#1a1a2e"/>
  
  <!-- Hair spikes -->
  <path d="M35 22 Q38 10 42 18" fill="#1a1a2e"/>
  <path d="M45 15 Q48 8 52 12" fill="#1a1a2e"/>
  <path d="M55 18 Q58 10 62 22" fill="#1a1a2e"/>
  
  <!-- Headband -->
  <rect x="28" y="28" width="44" height="8" fill="#000080"/>
  <rect x="42" y="25" width="16" height="14" fill="#C0C0C0"/>
  <circle cx="50" cy="32" r="3" fill="#FF4500"/>
  
  <!-- Eyes -->
  <ellipse cx="42" cy="42" rx="4" ry="3" fill="white"/>
  <ellipse cx="58" cy="42" rx="4" ry="3" fill="white"/>
  <circle cx="42" cy="42" r="2" fill="#2C2C54"/>
  <circle cx="58" cy="42" r="2" fill="#2C2C54"/>
  <circle cx="42" cy="41" r="1" fill="black"/>
  <circle cx="58" cy="41" r="1" fill="black"/>
  
  <!-- Nose -->
  <circle cx="50" cy="48" r="1" fill="#F4A460"/>
  
  <!-- Mouth (slight frown) -->
  <path d="M47 57 Q50 55 53 57" stroke="black" stroke-width="2" fill="none"/>
  
  <!-- Body/Shirt -->
  <rect x="35" y="65" width="30" height="35" fill="#000080"/>
  <rect x="40" y="70" width="20" height="25" fill="#FFFFFF"/>
  
  <!-- Uchiha clan symbol -->
  <circle cx="50" cy="77" r="4" fill="#FF0000"/>
  <path d="M48 75 Q50 73 52 75 Q50 79 48 75" fill="white"/>
  
  <!-- Arms -->
  <rect x="25" y="68" width="12" height="20" fill="#000080"/>
  <rect x="63" y="68" width="12" height="20" fill="#000080"/>
  
  <!-- Hands -->
  <circle cx="31" cy="88" r="4" fill="#FDBCB4"/>
  <circle cx="69" cy="88" r="4" fill="#FDBCB4"/>
</svg>